<?xml version="1.0" encoding="UTF-8"?>
<!-- Generator: visioncortex VTracer -->
<svg id="svg" version="1.1" xmlns="http://www.w3.org/2000/svg" style="display: block;" viewBox="0 0 1280 800"><path d="M0 0 C4.71663476 -0.26864327 9.43897572 -0.27141583 14.16235352 -0.29516602 C16.52876366 -0.31225635 18.89373132 -0.35610325 21.25976562 -0.40039062 C25.52764727 -0.44448897 29.74416326 -0.37485941 34 0 C36.79101562 0.8269043 36.79101562 0.8269043 38.94140625 1.8671875 C39.95074219 2.57101562 40.96007812 3.27484375 42 4 C42.78375 4.804375 43.5675 5.60875 44.375 6.4375 C46 9 46 9 47.07421875 11.234375 C47.37972656 12.14703125 47.68523438 13.0596875 48 14 C48.40242858 17.54560758 48.43599968 20.97153443 48.40234375 24.5390625 C48.26957031 25.68117188 48.13679687 26.82328125 48 28 C46.87890625 30.5859375 46.87890625 30.5859375 45.5 32.6875 C44.675 33.780625 43.85 34.87375 43 36 C43 36.99 43 37.98 43 39 C43.680625 40.11375 43.680625 40.11375 44.375 41.25 C44.91125 42.1575 45.4475 43.065 46 44 C47.06640625 47.171875 47.06640625 47.171875 48 51 C48.25606443 53.66095817 48.44181283 56.32947534 48.5625 59 C48.80110772 64.06432715 49.21069112 68.99017171 50 74 C49.01 74.495 49.01 74.495 48 75 C41.8859042 75.18812602 36.06380676 74.77000721 30 74 C29.02587891 71.83129883 29.02587891 71.83129883 28 69 C27.68115234 66.4128418 27.68115234 66.4128418 27.5859375 63.69921875 C27.54726563 62.72275391 27.50859375 61.74628906 27.46875 60.74023438 C27.4378125 59.73283203 27.406875 58.72542969 27.375 57.6875 C27.33632813 56.66076172 27.29765625 55.63402344 27.2578125 54.57617188 C27.16385103 52.05095735 27.0781846 49.52574408 27 47 C23.535 46.505 23.535 46.505 20 46 C19.98018066 46.80743652 19.96036133 47.61487305 19.93994141 48.44677734 C19.84494101 52.08985875 19.73516088 55.73234686 19.625 59.375 C19.57859375 61.28152344 19.57859375 61.28152344 19.53125 63.2265625 C19.49257813 64.43828125 19.45390625 65.65 19.4140625 66.8984375 C19.3826416 68.01911621 19.3512207 69.13979492 19.31884766 70.29443359 C19.21362793 71.18727051 19.1084082 72.08010742 19 73 C18.01 73.99 18.01 73.99 17 75 C13.375 75.23046875 13.375 75.23046875 9 75.1875 C7.55625 75.18105469 6.1125 75.17460937 4.625 75.16796875 C3.42875 75.11253906 2.2325 75.05710937 1 75 C0.34 74.67 -0.32 74.34 -1 74 C-1.02312484 64.4992558 -1.0409158 54.99852326 -1.05181217 45.49775791 C-1.05704069 41.08662996 -1.06413777 36.6755212 -1.07543945 32.2644043 C-1.08626944 28.01098885 -1.09227707 23.75759191 -1.09487724 19.50416374 C-1.09673129 17.87778367 -1.10035152 16.25140466 -1.10573006 14.62503242 C-1.11294188 12.35493067 -1.11340807 10.08481047 -1.11352539 7.81469727 C-1.115746 6.52008072 -1.11796661 5.22546417 -1.12025452 3.89161682 C-1.08057053 2.93738327 -1.04088654 1.98314972 -1 1 C-0.67 0.67 -0.34 0.34 0 0 Z M19 16 C19 20.62 19 25.24 19 30 C21.34260643 29.7397104 23.67724823 29.40047444 26 29 C26.66 28.34 27.32 27.68 28 27 C28.318384 24.8601368 28.318384 24.8601368 28.25 22.5 C28.25515625 21.7059375 28.2603125 20.911875 28.265625 20.09375 C28.17796875 19.4028125 28.0903125 18.711875 28 18 C27.34 17.34 26.68 16.68 26 16 C23.69 16 21.38 16 19 16 Z " transform="translate(612,337)" style="fill: #415951;"/><path d="M0 0 C2.39139079 -0.39953755 4.64273738 -0.5311624 7.06640625 -0.546875 C7.86949219 -0.53140625 8.67257812 -0.5159375 9.5 -0.5 C10.30308594 -0.51546875 11.10617187 -0.5309375 11.93359375 -0.546875 C14.35552209 -0.53117368 16.60968367 -0.39440981 19 0 C21.25634766 0.78955078 21.25634766 0.78955078 23.3828125 1.7890625 C25.17332031 2.88347656 25.17332031 2.88347656 27 4 C27.66773438 4.63679688 28.33546875 5.27359375 29.0234375 5.9296875 C30.41093587 7.92672273 31.76476702 9.90458828 33 12 C33.433125 12.99 33.86625 13.98 34.3125 15 C35.14970155 18.65324312 35.6804512 22.27008783 36 26 C36.16467828 30.25078049 36.18504976 34.49637772 36.1875 38.75 C36.19974609 39.8534375 36.21199219 40.956875 36.22460938 42.09375 C36.23447389 47.69679453 35.9566866 53.07543003 35.0703125 58.61328125 C34.75162124 60.41600236 34.40031191 62.21362996 34 64 C33.566875 65.134375 33.13375 66.26875 32.6875 67.4375 C31 70 31 70 28.75 72.6875 C27.8425 73.450625 26.935 74.21375 26 75 C22.88671875 76.62109375 22.88671875 76.62109375 19 78 C15.9305207 78.28180638 13.11929512 78.42143233 10.0625 78.375 C9.30259766 78.38660156 8.54269531 78.39820313 7.75976562 78.41015625 C5.50239608 78.39858988 3.24849503 78.20030261 1 78 C-1.22949219 77.42431641 -1.22949219 77.42431641 -3.35546875 76.6875 C-4.55816406 76.130625 -5.76085937 75.57375 -7 75 C-7.66773438 74.45601563 -8.33546875 73.91203125 -9.0234375 73.3515625 C-10.39334549 71.60156443 -11.69653012 69.80002984 -13 68 C-13.433125 67.154375 -13.86625 66.30875 -14.3125 65.4375 C-15.1072733 62.6196674 -15.59322795 59.90300779 -16 57 C-16.21456895 51.92479413 -16.2280482 46.84984939 -16.24023438 41.77075195 C-16.24990247 39.3370496 -16.28095048 36.90420648 -16.3125 34.47070312 C-16.34329242 29.96285973 -16.27522201 25.50126262 -16 21 C-15.46385541 17.93862086 -14.77320963 15.06511668 -13.86108398 12.09814453 C-13.57692627 11.40575684 -13.29276855 10.71336914 -13 10 C-12.278125 8.865625 -11.55625 7.73125 -10.8125 6.5625 C-9.884375 5.716875 -8.95625 4.87125 -8 4 C-6.12590572 2.88617079 -4.2389128 1.78453542 -2.27612305 0.83569336 C-1.52500244 0.55991455 -0.77388184 0.28413574 0 0 Z M7 16 C6.51321777 16.47816162 6.02643555 16.95632324 5.52490234 17.44897461 C4.77007568 18.71173218 4.77007568 18.71173218 4 20 C3.70687825 23.01030504 3.57936262 25.8076964 3.6015625 28.81640625 C3.59869232 29.66927719 3.59582214 30.52214813 3.59286499 31.40086365 C3.59082677 33.20043605 3.59633972 35.00003073 3.60888672 36.79956055 C3.62496401 39.55632909 3.6090201 42.31163596 3.58984375 45.06835938 C3.59182584 46.81771157 3.5956688 48.56706286 3.6015625 50.31640625 C3.59548981 51.14145157 3.58941711 51.96649689 3.5831604 52.81654358 C3.58094884 55.40308981 3.58094884 55.40308981 4 59 C4.99 59.99 5.98 60.98 7 62 C10.12549017 62.25048636 10.12549017 62.25048636 13 62 C13.66 61.01 14.32 60.02 15 59 C15.71459475 55.95626973 15.71459475 55.95626973 16 52 C16.16139668 47.5199523 16.18507826 43.04514568 16.1875 38.5625 C16.19974609 37.37333984 16.21199219 36.18417969 16.22460938 34.95898438 C16.2521016 28.63748511 16.2521016 28.63748511 15.54150391 22.37060547 C15.09081469 20.56347298 14.55716244 18.77719403 14 17 C11.69 16.67 9.38 16.34 7 16 Z " transform="translate(570,335)" style="fill: #3D554E;"/><path d="M0 0 C5.70577714 -0.4926675 11.29771883 -0.41529219 17 0 C19.90234375 0.6171875 19.90234375 0.6171875 22.1875 1.5 C24.20703125 2.62890625 24.20703125 2.62890625 26 4 C27.76171875 5.58984375 27.76171875 5.58984375 29.375 7.4375 C30.68579102 9.46679688 30.68579102 9.46679688 32 12 C33.3800542 16.26490692 34.26896886 20.57972207 35 25 C35.38816444 29.84342959 35.42135324 34.64321077 35.375 39.5 C35.38660156 40.71558594 35.39820313 41.93117188 35.41015625 43.18359375 C35.39443688 48.09327709 35.1992203 52.80770394 34.38916016 57.65576172 C33.69605347 60.82368 32.98750108 63.91130382 32 67 C30.875 69.24853516 30.875 69.24853516 29.625 71.125 C28.75875 72.07375 27.8925 73.0225 27 74 C26.154375 74.61875 25.30875 75.2375 24.4375 75.875 C23.633125 76.24625 22.82875 76.6175 22 77 C20.02 77.495 20.02 77.495 18 78 C12.31304298 78.3017569 6.68357624 78.29379388 1 78 C-1.71875 77.50390625 -1.71875 77.50390625 -3.75 76.8125 C-4.8225 76.214375 -5.895 75.61625 -7 75 C-8.3921875 73.824375 -8.3921875 73.824375 -9.8125 72.625 C-12 70 -12 70 -13.75 67.375 C-15 65 -15 65 -16 62 C-16.1341405 58.71957093 -16.21250948 55.46129232 -16.23828125 52.1796875 C-16.246353 51.20645538 -16.25442474 50.23322327 -16.26274109 49.23049927 C-16.27657657 47.16768166 -16.28730112 45.1048412 -16.29516602 43.04199219 C-16.31232074 39.90775236 -16.35620517 36.77458352 -16.40039062 33.640625 C-16.41052316 31.63282023 -16.4190375 29.62500651 -16.42578125 27.6171875 C-16.44328934 26.68873016 -16.46079742 25.76027283 -16.47883606 24.80368042 C-16.47011135 22.14779608 -16.36684409 19.63103221 -16 17 C-15.22566801 14.53663879 -14.28963207 12.26786834 -13.19572449 9.93118286 C-12.80113541 9.29389252 -12.40654633 8.65660217 -12 8 C-10.36714172 6.1882019 -10.36714172 6.1882019 -8.5625 4.5625 C-5 2 -5 2 -2.79296875 0.86328125 C-1.87128906 0.57839844 -0.94960938 0.29351562 0 0 Z M7 16 C6.01 16.99 5.02 17.98 4 19 C3.67 19.99 3.34 20.98 3 22 C2.76967082 26.96603671 2.77168105 31.93455709 2.75976562 36.90527344 C2.75006299 39.35906915 2.7190322 41.81202589 2.6875 44.265625 C2.68096915 45.83072421 2.675719 47.39582939 2.671875 48.9609375 C2.6625293 50.38196777 2.65318359 51.80299805 2.64355469 53.26708984 C2.76118164 54.4989502 2.87880859 55.73081055 3 57 C4.3738376 59.92129779 4.3738376 59.92129779 6 62 C7.98 62 9.96 62 12 62 C13.58592938 58.8552725 13.58592938 58.8552725 15 55 C15.43885246 51.33640336 15.43885246 51.33640336 15.36328125 47.52734375 C15.36263672 46.13322266 15.36199219 44.73910156 15.36132812 43.30273438 C15.34521484 41.86220703 15.32910156 40.42167969 15.3125 38.9375 C15.31572266 37.49310547 15.31894531 36.04871094 15.32226562 34.56054688 C15.30258091 28.77450585 15.30258091 28.77450585 15 23 C14.06937159 19.66635075 14.06937159 19.66635075 13 17 C10.03 16.505 10.03 16.505 7 16 Z " transform="translate(440,335)" style="fill: #3D544D;"/><path d="M0 0 C5.89865278 -0.54288486 11.74830039 -0.63556138 17.66308594 -0.28125 C18.43426758 -0.1884375 19.20544922 -0.095625 20 0 C21.07507813 0.350625 22.15015625 0.70125 23.2578125 1.0625 C25.75 2.5 25.75 2.5 27.96875 4.1796875 C28.6390625 4.78039062 29.309375 5.38109375 30 6 C31.06734375 6.87011719 31.06734375 6.87011719 32.15625 7.7578125 C34.25 9.625 34.25 9.625 36.1875 11.671875 C38 14 38 14 39.6875 16.828125 C41.23580487 19.84731949 42.64898985 22.88785163 44 26 C44.391875 26.89460938 44.78375 27.78921875 45.1875 28.7109375 C46.96047412 32.94782419 48.50716815 37.1682529 49.58544922 41.64453125 C50.41588203 46.3630329 50.41065028 51.09575001 50.4375 55.875 C50.47037109 56.89980469 50.50324219 57.92460937 50.53710938 58.98046875 C50.5586624 62.06451079 50.45050084 64.94773599 50 68 C48.99376325 70.76304469 47.80626457 73.2441436 46.38964844 75.81762695 C44.95701412 78.06750717 43.44213412 80.20123627 41.8125 82.3125 C40.00390625 84.2421875 40.00390625 84.2421875 38 86 C35.71484375 87.5703125 35.71484375 87.5703125 33.25 88.9375 C30.6640625 90.08984375 30.6640625 90.08984375 28 91 C25.3359375 91.62890625 25.3359375 91.62890625 22.625 92 C19.8671875 92.1328125 19.8671875 92.1328125 17 92 C13.82632333 91.54661762 10.83679842 90.89929904 7.75 90.03515625 C5 89 5 89 2.6875 87.68359375 C0.75 86.3125 0.75 86.3125 -2 84 C-2.185625 84.7425 -2.37125 85.485 -2.5625 86.25 C-3.036875 87.1575 -3.51125 88.065 -4 89 C-7.03515625 91.13671875 -7.03515625 91.13671875 -11 93 C-14.12027504 93.4105625 -16.77361026 93.62169557 -19.875 93.5625 C-20.6693042 93.55371826 -21.4636084 93.54493652 -22.28198242 93.53588867 C-24.52707571 93.45775638 -26.76569325 93.23328495 -29 93 C-29.98871094 92.68546875 -30.97742188 92.3709375 -31.99609375 92.046875 C-34.3125 90.8125 -34.3125 90.8125 -36.3203125 89.41015625 C-36.87460937 88.94480469 -37.42890625 88.47945313 -38 88 C-38.886875 87.2575 -39.77375 86.515 -40.6875 85.75 C-43.20063737 82.76140421 -45.53673348 79.79293773 -47.64453125 76.50390625 C-49 74 -49 74 -50.01171875 71.46484375 C-51.16235552 67.65371024 -51.86912894 63.85829606 -52.46875 59.92578125 C-53.12263371 53.64701153 -53.02564956 47.4719498 -52.60302734 41.18530273 C-52.23580517 36.76015756 -51.77079444 32.37458876 -51 28 C-50.02161736 24.33551228 -48.88254808 21.0039246 -47.3515625 17.5390625 C-46 15 -46 15 -43.5625 11.4375 C-41 9 -41 9 -37.9375 6.6875 C-36.968125 6.130625 -35.99875 5.57375 -35 5 C-31 4 -31 4 -28.66796875 3.796875 C-26.08249455 3.74801565 -23.5767709 3.76971847 -21 4 C-17.125 5.375 -17.125 5.375 -14 7 C-12.68 7.66 -11.36 8.32 -10 9 C-8.63875 7.329375 -8.63875 7.329375 -7.25 5.625 C-5.703125 3.7265625 -5.703125 3.7265625 -4 2 C-2.68 1.34 -1.36 0.68 0 0 Z M4 5 C2.88625 5.37125 1.7725 5.7425 0.625 6.125 C-0.674375 7.053125 -0.674375 7.053125 -2 8 C-2.804375 8.94875 -3.60875 9.8975 -4.4375 10.875 C-4.953125 11.90625 -5.46875 12.9375 -6 14 C-5.79912046 16.3716752 -5.79912046 16.3716752 -5 19 C-4.21772081 21.28142051 -3.40251101 23.55169886 -2.5625 25.8125 C-0.73054879 30.84771849 0.84945828 35.77026492 2 41 C10.01946644 40.31697931 18.00891731 39.45741323 26 38.5 C27.11761719 38.36980469 28.23523438 38.23960937 29.38671875 38.10546875 C30.45535156 37.97785156 31.52398438 37.85023438 32.625 37.71875 C34.06746094 37.54762695 34.06746094 37.54762695 35.5390625 37.37304688 C38.12753966 37.05219341 38.12753966 37.05219341 41 36 C40.76019964 33.85756913 40.76019964 33.85756913 40 31 C38.40707012 26.89514223 36.68260969 23.16598051 34.4609375 19.37109375 C32.76098427 16.7668275 31.02828224 14.35808423 29 12 C27.06907675 10.30685596 27.06907675 10.30685596 25 9 C21.15485469 7.00024121 21.15485469 7.00024121 17.625 5.6875 C14.64076257 5.12152394 11.9580928 4.79586207 8.9375 4.6875 C6.39427401 4.71966755 6.39427401 4.71966755 4 5 Z M-30 10 C-31.546875 10.5878125 -31.546875 10.5878125 -33.125 11.1875 C-36.03589629 12.94378398 -36.03589629 12.94378398 -38.625 15.125 C-41.13800709 18.01637924 -41.13800709 18.01637924 -43.1875 21.6875 C-44.24134889 24.06889971 -44.24134889 24.06889971 -45 27 C-46.18092499 33.89057846 -47 41.00972637 -47 48 C-32.27501634 46.31740236 -17.61707752 44.45650528 -3 42 C-4.60221727 34.04862849 -4.60221727 34.04862849 -6.984375 26.30859375 C-7.92294462 24.17515279 -8.9576485 22.084703 -10 20 C-10.680625 18.6078125 -10.680625 18.6078125 -11.375 17.1875 C-11.91125 16.465625 -12.4475 15.74375 -13 15 C-15.86875539 12.6984961 -15.86875539 12.6984961 -19 11 C-22.86189353 9.9139634 -22.86189353 9.9139634 -26.375 9.75 C-28.169375 9.87375 -28.169375 9.87375 -30 10 Z M33.375 43 C31.31378906 43.2784375 31.31378906 43.2784375 29.2109375 43.5625 C28.15132812 43.706875 27.09171875 43.85125 26 44 C25.67 45.65 25.34 47.3 25 49 C22.69 49.33 20.38 49.66 18 50 C17.01 48.68 16.02 47.36 15 46 C11.37 46.33 7.74 46.66 4 47 C3.95101562 48.65128906 3.90203125 50.30257812 3.8515625 52.00390625 C3.77649937 54.19011993 3.70095308 56.37631706 3.625 58.5625 C3.5940625 59.64853516 3.563125 60.73457031 3.53125 61.85351562 C3.41960681 64.91439986 3.27916696 67.94970586 3 71 C1.9609375 75.27734375 1.9609375 75.27734375 1 78 C3.5836403 80.13401978 6.21171465 82.13949809 9 84 C10.11375 84.474375 11.2275 84.94875 12.375 85.4375 C15.76918149 86.04247441 15.76918149 86.04247441 18.30859375 86.0625 C20.97146837 85.92956398 23.39866262 85.58927464 26 85 C28.74623378 84.06166975 31.19155341 82.96943001 33.73828125 81.578125 C36.02860457 80.07417754 36.02860457 80.07417754 37.85546875 78.171875 C39.43783441 76.18708054 40.74441911 74.20451826 42 72 C43.82287206 68.76740153 43.82287206 68.76740153 44.53515625 66.46875 C45.16786505 63.10848144 45.25531264 59.85528602 45.3125 56.4375 C45.34977622 52.6911999 45.34977622 52.6911999 45 49 C44.39565129 46.64975501 43.74595976 44.30920612 43 42 C39.75728483 42 36.5853836 42.56469375 33.375 43 Z M-6 48 C-8.90778371 48.17725242 -11.65536037 48.64281052 -14.515625 49.19140625 C-15.74539063 49.59166016 -15.74539063 49.59166016 -17 50 C-18.84434349 52.46115547 -18.84434349 52.46115547 -20 55 C-21.051875 55.268125 -22.10375 55.53625 -23.1875 55.8125 C-24.5796875 55.9053125 -24.5796875 55.9053125 -26 56 C-26.66 54.68 -27.32 53.36 -28 52 C-30.06309376 52.11478413 -32.12548354 52.24226198 -34.1875 52.375 C-35.33605469 52.44460938 -36.48460937 52.51421875 -37.66796875 52.5859375 C-38.76753906 52.72257812 -39.86710938 52.85921875 -41 53 C-43.81528247 53.94904662 -43.81528247 53.94904662 -46 55 C-46.19644103 58.4377181 -46.2847275 61.58326995 -46 65 C-45.4020048 67.62184204 -45.4020048 67.62184204 -44.4375 70.125 C-43.29178832 72.67280639 -42.03992811 74.94000439 -40.4921875 77.265625 C-38.84505088 79.3960578 -38.84505088 79.3960578 -36.98046875 81.30859375 C-35.04698416 83.04186875 -35.04698416 83.04186875 -32.86328125 84.34765625 C-30.5962047 85.45152075 -28.41772357 86.28604136 -26 87 C-23.68881221 87.5892735 -23.68881221 87.5892735 -21.375 87.9375 C-19.93125 87.958125 -18.4875 87.97875 -17 88 C-15.7625 87.62875 -14.525 87.2575 -13.25 86.875 C-12.1775 86.25625 -11.105 85.6375 -10 85 C-9.071875 84.21625 -8.14375 83.4325 -7.1875 82.625 C-6.465625 81.75875 -5.74375 80.8925 -5 80 C-3.83204135 77.80971665 -3.83204135 77.80971665 -3 75 C-2.52448322 72.04957134 -2.12847093 69.15370775 -1.8125 66.1875 C-1.71775391 65.41857422 -1.62300781 64.64964844 -1.52539062 63.85742188 C-1.27185359 61.56397616 -1.07401885 59.30650697 -1 57 C-1.19929917 54.29009265 -1.56802024 51.68685284 -2 49 C-3.32 48.67 -4.64 48.34 -6 48 Z " transform="translate(930,326)" style="fill: #A3AEAA;"/><path d="M0 0 C2.90623718 -0.29835467 5.59369303 -0.42032628 8.5 -0.3984375 C9.33208984 -0.40130768 10.16417969 -0.40417786 11.02148438 -0.40713501 C12.77995484 -0.40917562 14.53844801 -0.40364593 16.296875 -0.39111328 C18.99009913 -0.37505902 21.6818226 -0.39096145 24.375 -0.41015625 C26.08333665 -0.40817382 27.79167236 -0.40433014 29.5 -0.3984375 C30.70946289 -0.40754654 30.70946289 -0.40754654 31.94335938 -0.4168396 C34.21875 -0.38818359 34.21875 -0.38818359 38 0 C38.99 0.99 39.98 1.98 41 3 C41.29296875 6.13671875 41.29296875 6.13671875 41.1875 9.6875 C41.14689453 11.45673828 41.14689453 11.45673828 41.10546875 13.26171875 C41.07066406 14.16535156 41.03585937 15.06898438 41 16 C40.01 16.66 39.02 17.32 38 18 C35.73168945 18.13525391 35.73168945 18.13525391 33.11328125 17.9765625 C32.17548828 17.925 31.23769531 17.8734375 30.27148438 17.8203125 C29.29501953 17.75585938 28.31855469 17.69140625 27.3125 17.625 C25.83040039 17.53992188 25.83040039 17.53992188 24.31835938 17.453125 C21.87833135 17.3116741 19.43907139 17.15708554 17 17 C17 20.63 17 24.26 17 28 C19.25650391 27.98259766 19.25650391 27.98259766 21.55859375 27.96484375 C23.51822793 27.95546751 25.47786345 27.94636713 27.4375 27.9375 C28.92733398 27.92493164 28.92733398 27.92493164 30.44726562 27.91210938 C31.86362305 27.90727539 31.86362305 27.90727539 33.30859375 27.90234375 C34.62041626 27.89448853 34.62041626 27.89448853 35.95874023 27.88647461 C36.63235596 27.92393799 37.30597168 27.96140137 38 28 C38.33 28.33 38.66 28.66 39 29 C39.07292593 31.68659116 39.0836614 34.37500256 39.0625 37.0625 C39.05347656 38.53847656 39.04445313 40.01445312 39.03515625 41.53515625 C39.02355469 42.67855469 39.01195312 43.82195312 39 45 C37.05078125 45.52734375 37.05078125 45.52734375 34 46 C31.04350362 45.91490122 28.13352255 45.77733987 25.1875 45.5625 C24.00510742 45.48418945 24.00510742 45.48418945 22.79882812 45.40429688 C20.86548471 45.27540731 18.93267836 45.13850506 17 45 C17 49.29 17 53.58 17 58 C24.59 58 32.18 58 40 58 C40.66 58.99 41.32 59.98 42 61 C42.265625 64.06640625 42.265625 64.06640625 42.25 67.5625 C42.25773437 69.29693359 42.25773437 69.29693359 42.265625 71.06640625 C42.17796875 72.03449219 42.0903125 73.00257813 42 74 C41.34 74.66 40.68 75.32 40 76 C36.93821227 76.20014153 33.96880708 76.27971072 30.90625 76.265625 C30.0037854 76.26753845 29.1013208 76.2694519 28.17150879 76.27142334 C26.26163454 76.27278559 24.35175104 76.26908638 22.44189453 76.26074219 C19.5118335 76.25004321 16.58238562 76.26063611 13.65234375 76.2734375 C11.79947781 76.27211591 9.94661225 76.26955353 8.09375 76.265625 C6.77340759 76.27169769 6.77340759 76.27169769 5.4263916 76.27789307 C3.28232347 76.26129253 1.13956618 76.13985817 -1 76 C-1.66 75.34 -2.32 74.68 -3 74 C-3.26069641 71.08424377 -3.26069641 71.08424377 -3.2746582 67.30297852 C-3.28419022 65.89133926 -3.29372223 64.47970001 -3.30354309 63.02528381 C-3.30328167 61.47649104 -3.30234468 59.92769826 -3.30078125 58.37890625 C-3.30466652 56.7971129 -3.30900084 55.2153206 -3.31376648 53.63352966 C-3.32123573 50.31546652 -3.32093243 46.99750976 -3.31567383 43.67944336 C-3.3098794 39.42430021 -3.32680581 35.16959237 -3.3500185 30.91452122 C-3.36474061 27.64688057 -3.36562962 24.37934511 -3.36250877 21.11167717 C-3.3630228 19.54276607 -3.36827569 17.9738492 -3.37832069 16.40497017 C-3.39063642 14.21215246 -3.38196866 12.01924706 -3.37231445 9.82641602 C-3.37294388 8.57780289 -3.3735733 7.32918976 -3.3742218 6.04273987 C-3.25072861 5.03863571 -3.12723541 4.03453156 -3 3 C-2.01 2.01 -1.02 1.02 0 0 Z " transform="translate(307,336)" style="fill: #496058;"/><path d="M0 0 C3.08449672 -0.29793434 5.92099202 -0.41857087 9 -0.375 C10.22976563 -0.39240234 10.22976563 -0.39240234 11.484375 -0.41015625 C13.875 -0.3984375 13.875 -0.3984375 18 0 C18.99 0.99 19.98 1.98 21 3 C21.88793945 5.59008789 21.88793945 5.59008789 22.61328125 8.72265625 C22.88881836 9.88877441 23.16435547 11.05489258 23.44824219 12.25634766 C23.73344727 13.51237793 24.01865234 14.7684082 24.3125 16.0625 C24.76544434 17.99681885 24.76544434 17.99681885 25.22753906 19.97021484 C26.16313316 23.9775946 27.08329806 27.98826039 28 32 C28.82751057 35.59842431 29.65599156 39.19662299 30.48510742 42.79467773 C30.97974485 44.94831615 31.4710235 47.10272997 31.95825195 49.25805664 C33.28905237 55.10834099 34.7574707 60.89069184 36.41601562 66.65722656 C36.60873047 67.4303418 36.80144531 68.20345703 37 69 C37.25 72.625 37.25 72.625 37 75 C36.67 75.33 36.34 75.66 36 76 C33.37810907 76.15250372 30.75117222 76.2219126 28.125 76.25 C26.68382812 76.27578125 25.24265625 76.3015625 23.7578125 76.328125 C22.51773438 76.21984375 21.27765625 76.1115625 20 76 C19.01 75.01 18.02 74.02 17 73 C16.30498923 69.33395081 16.21978225 65.73629832 16 62 C9.565 62.495 9.565 62.495 3 63 C2.71125 64.77375 2.4225 66.5475 2.125 68.375 C1.6328125 71.3984375 1.6328125 71.3984375 1 74 C0.01 74.99 0.01 74.99 -1 76 C-4.625 76.23046875 -4.625 76.23046875 -9 76.1875 C-10.44375 76.18105469 -11.8875 76.17460937 -13.375 76.16796875 C-14.57125 76.11253906 -15.7675 76.05710937 -17 76 C-17.66 75.67 -18.32 75.34 -19 75 C-18.39409093 68.37237089 -17.22468156 62.11356605 -15.63671875 55.65625 C-15.4034639 54.68828491 -15.17020905 53.72031982 -14.92988586 52.72302246 C-14.18758864 49.64740458 -13.43777421 46.57368059 -12.6875 43.5 C-11.95198261 40.46390054 -11.21800793 37.42743182 -10.48440552 34.39086914 C-10.00516807 32.41166969 -9.52380622 30.43298336 -9.04025269 28.45483398 C-7.93554453 23.92781541 -6.85544151 19.39960334 -5.85791016 14.84765625 C-5.68290482 14.06080444 -5.50789948 13.27395264 -5.32759094 12.46325684 C-4.86598341 10.37252734 -4.41651533 8.2791278 -3.96801758 6.18554688 C-3.64857178 5.13431641 -3.32912598 4.08308594 -3 3 C-2.01 2.01 -1.02 1.02 0 0 Z M8 27 C7.34 32.94 6.68 38.88 6 45 C7.98 45 9.96 45 12 45 C11.74727945 41.32225096 11.44642246 37.65968302 11 34 C10.40318115 31.64783161 9.76739096 29.30217289 9 27 C8.67 27 8.34 27 8 27 Z " transform="translate(823,336)" style="fill: #425952;"/><path d="M0 0 C2.38500977 -0.37231445 2.38500977 -0.37231445 5.19140625 -0.36328125 C6.21943359 -0.36263672 7.24746094 -0.36199219 8.30664062 -0.36132812 C9.91829102 -0.3371582 9.91829102 -0.3371582 11.5625 -0.3125 C12.60986328 -0.31572266 13.65722656 -0.31894531 14.73632812 -0.32226562 C18.8323308 -0.29426312 22.83216829 -0.16569186 26.89086914 0.41015625 C29.294838 0.86576037 31.64539569 1.33553255 34 2 C35.093125 2.53625 36.18625 3.0725 37.3125 3.625 C38.199375 4.40875 39.08625 5.1925 40 6 C41.46861449 7.93952891 42.76279847 9.91764666 44.01953125 12 C44.50486328 12.99 44.50486328 12.99 45 14 C46 18 46 18 46.23828125 20.8828125 C46.31635549 24.29342416 46.28439388 27.59896085 46 31 C45.29111011 33.82454056 44.3743091 36.38609976 43.265625 39.07421875 C42.84796875 39.70972656 42.4303125 40.34523438 42 41 C40.68 41.66 39.36 42.32 38 43 C38 43.66 38 44.32 38 45 C31.10080645 47.68951613 31.10080645 47.68951613 27.5625 48.6875 C23.7352803 49.15423411 19.85557407 49 16 49 C16 57.58 16 66.16 16 75 C15.01 75.495 15.01 75.495 14 76 C11.31033586 75.93684887 8.62212442 75.80127525 5.9375 75.625 C4.48214844 75.53476562 3.02679688 75.44453125 1.52734375 75.3515625 C-0.21869141 75.17753906 -0.21869141 75.17753906 -2 75 C-2.33 74.67 -2.66 74.34 -3 74 C-3.1101425 71.80760906 -3.14914253 69.61162705 -3.16113281 67.41650391 C-3.17074036 66.00478912 -3.1803479 64.59307434 -3.19024658 63.13858032 C-3.19509406 61.58457601 -3.19937302 60.03056984 -3.203125 58.4765625 C-3.20887388 56.89334103 -3.21463164 55.3101196 -3.22039795 53.72689819 C-3.23091798 50.40288975 -3.23675398 47.07890557 -3.24023438 43.75488281 C-3.24571941 39.49189315 -3.26974316 35.22922286 -3.29820633 30.96633339 C-3.31681509 27.69441792 -3.32203737 24.42257962 -3.32357025 21.15061569 C-3.32660162 19.57890452 -3.33464645 18.00719486 -3.34775543 16.43553543 C-3.36477639 14.23784934 -3.36109663 12.04003223 -3.35644531 9.84228516 C-3.36009094 8.59065582 -3.36373657 7.33902649 -3.36749268 6.04946899 C-3.24622009 5.04314423 -3.12494751 4.03681946 -3 3 C-2.01 2.01 -1.02 1.02 0 0 Z M17 17 C17 21.95 17 26.9 17 32 C20.465 31.505 20.465 31.505 24 31 C24.66 30.01 25.32 29.02 26 28 C26.41666667 24 26.41666667 24 26 20 C25.01 19.01 24.02 18.02 23 17 C21.02 17 19.04 17 17 17 Z " transform="translate(506,336)" style="fill: #405851;"/><path d="M0 0 C2.16967773 -0.37231445 2.16967773 -0.37231445 4.68359375 -0.36328125 C5.6058374 -0.36432861 6.52808105 -0.36537598 7.47827148 -0.36645508 C8.45481689 -0.3486499 9.4313623 -0.33084473 10.4375 -0.3125 C11.43144775 -0.30049561 12.42539551 -0.28849121 13.44946289 -0.27612305 C18.63876723 -0.17648365 23.78732827 0.00431395 28.9375 0.6875 C31.65234375 1.25390625 31.65234375 1.25390625 34 2 C36.12890625 2.96484375 36.12890625 2.96484375 38 4.125 C38.99 5.07375 39.98 6.0225 41 7 C42.2734375 8.9296875 42.2734375 8.9296875 43.375 11 C44.23585394 13.11902508 45.07736344 15.25143118 45.75 17.4375 C46.12820954 21.31414777 46.24585415 25.11676515 46 29 C45.59151754 32.18512902 44.91727822 34.88125407 44 38 C43.4225 38.928125 42.845 39.85625 42.25 40.8125 C40 43 40 43 37.25 45.1875 C36.1775 45.785625 35.105 46.38375 34 47 C30.25 48.25 30.25 48.25 26 49 C22.7 49 19.4 49 16 49 C16.33 57.25 16.66 65.5 17 74 C15.515 74.99 15.515 74.99 14 76 C10.2421875 76.01171875 10.2421875 76.01171875 5.875 75.6875 C3.70550781 75.53861328 3.70550781 75.53861328 1.4921875 75.38671875 C0.33976563 75.25910156 -0.81265625 75.13148438 -2 75 C-2.33 74.67 -2.66 74.34 -3 74 C-3.1101425 71.80760906 -3.14914253 69.61162705 -3.16113281 67.41650391 C-3.17074036 66.00478912 -3.1803479 64.59307434 -3.19024658 63.13858032 C-3.19509406 61.58457601 -3.19937302 60.03056984 -3.203125 58.4765625 C-3.20887388 56.89334103 -3.21463164 55.3101196 -3.22039795 53.72689819 C-3.23091798 50.40288975 -3.23675398 47.07890557 -3.24023438 43.75488281 C-3.24571941 39.49189315 -3.26974316 35.22922286 -3.29820633 30.96633339 C-3.31681509 27.69441792 -3.32203737 24.42257962 -3.32357025 21.15061569 C-3.32660162 19.57890452 -3.33464645 18.00719486 -3.34775543 16.43553543 C-3.36477639 14.23784934 -3.36109663 12.04003223 -3.35644531 9.84228516 C-3.36009094 8.59065582 -3.36373657 7.33902649 -3.36749268 6.04946899 C-3.24622009 5.04314423 -3.12494751 4.03681946 -3 3 C-2.01 2.01 -1.02 1.02 0 0 Z M16 17 C15.97284617 18.74991334 15.95353449 20.49994945 15.9375 22.25 C15.92589844 23.22453125 15.91429687 24.1990625 15.90234375 25.203125 C15.93457031 26.12609375 15.96679688 27.0490625 16 28 C16.33 29.32 16.66 30.64 17 32 C20.43230448 31.73606499 20.43230448 31.73606499 24 31 C24.66 30.01 25.32 29.02 26 28 C26.41666667 24 26.41666667 24 26 20 C25.01 19.01 24.02 18.02 23 17 C19.37464024 16.7496423 19.37464024 16.7496423 16 17 Z " transform="translate(692,336)" style="fill: #3C554D;"/><path d="M0 0 C2.83613659 -0.27400473 5.44779977 -0.37272278 8.28125 -0.328125 C9.4960907 -0.32531525 9.4960907 -0.32531525 10.73547363 -0.32244873 C12.44690063 -0.31572965 14.15831231 -0.30181794 15.86962891 -0.28125 C18.49005399 -0.25011816 21.10987712 -0.24028056 23.73046875 -0.234375 C25.3932365 -0.22520371 27.05599814 -0.21482753 28.71875 -0.203125 C29.50318481 -0.19887512 30.28761963 -0.19462524 31.0958252 -0.19024658 C33.06473479 -0.16436415 35.03279554 -0.08591549 37 0 C37.99 0.33 38.98 0.66 40 1 C40.19387958 3.47867592 40.37994333 5.95796442 40.5625 8.4375 C40.71912109 10.50837891 40.71912109 10.50837891 40.87890625 12.62109375 C40.93884766 14.29365234 40.93884766 14.29365234 41 16 C40.505 16.495 40.505 16.495 40 17 C38.29227642 17.08713831 36.58101351 17.10700007 34.87109375 17.09765625 C33.31938477 17.09282227 33.31938477 17.09282227 31.73632812 17.08789062 C30.64771484 17.07951172 29.55910156 17.07113281 28.4375 17.0625 C26.7987793 17.05573242 26.7987793 17.05573242 25.12695312 17.04882812 C22.41794568 17.0369984 19.7089662 17.01906231 17 17 C17 20.63 17 24.26 17 28 C19.25650391 27.98259766 19.25650391 27.98259766 21.55859375 27.96484375 C23.51822793 27.95546751 25.47786345 27.94636713 27.4375 27.9375 C28.92733398 27.92493164 28.92733398 27.92493164 30.44726562 27.91210938 C31.86362305 27.90727539 31.86362305 27.90727539 33.30859375 27.90234375 C34.62041626 27.89448853 34.62041626 27.89448853 35.95874023 27.88647461 C36.63235596 27.92393799 37.30597168 27.96140137 38 28 C38.33 28.33 38.66 28.66 39 29 C39.09923461 31.49837719 39.12969989 33.99965722 39.125 36.5 C39.12886719 38.55734375 39.12886719 38.55734375 39.1328125 40.65625 C39.08898437 41.7596875 39.04515625 42.863125 39 44 C38.67 44.33 38.34 44.66 38 45 C36.43827255 45.08685603 34.87270656 45.10702219 33.30859375 45.09765625 C32.36435547 45.09443359 31.42011719 45.09121094 30.44726562 45.08789062 C29.45404297 45.07951172 28.46082031 45.07113281 27.4375 45.0625 C26.44041016 45.05798828 25.44332031 45.05347656 24.41601562 45.04882812 C21.94395151 45.03700007 19.47200482 45.02051849 17 45 C17.00785522 46.30988892 17.00785522 46.30988892 17.01586914 47.64624023 C17.03656793 51.57665293 17.04963739 55.50705419 17.0625 59.4375 C17.07087891 60.81228516 17.07925781 62.18707031 17.08789062 63.60351562 C17.09272461 65.5612793 17.09272461 65.5612793 17.09765625 67.55859375 C17.10551147 69.37315063 17.10551147 69.37315063 17.11352539 71.22436523 C17.07606201 72.14032471 17.03859863 73.05628418 17 74 C16.67 74.33 16.34 74.66 16 75 C12.99054282 75.09992338 10.00916355 75.13876142 7 75.125 C6.154375 75.12886719 5.30875 75.13273437 4.4375 75.13671875 C2.29118554 75.13327914 0.14513509 75.07122519 -2 75 C-2.33 74.67 -2.66 74.34 -3 74 C-3.1101425 71.80760906 -3.14914253 69.61162705 -3.16113281 67.41650391 C-3.17074036 66.00478912 -3.1803479 64.59307434 -3.19024658 63.13858032 C-3.19509406 61.58457601 -3.19937302 60.03056984 -3.203125 58.4765625 C-3.20887388 56.89334103 -3.21463164 55.3101196 -3.22039795 53.72689819 C-3.23091798 50.40288975 -3.23675398 47.07890557 -3.24023438 43.75488281 C-3.24571941 39.49189315 -3.26974316 35.22922286 -3.29820633 30.96633339 C-3.31681509 27.69441792 -3.32203737 24.42257962 -3.32357025 21.15061569 C-3.32660162 19.57890452 -3.33464645 18.00719486 -3.34775543 16.43553543 C-3.36477639 14.23784934 -3.36109663 12.04003223 -3.35644531 9.84228516 C-3.36009094 8.59065582 -3.36373657 7.33902649 -3.36749268 6.04946899 C-3.24622009 5.04314423 -3.12494751 4.03681946 -3 3 C-2.01 2.01 -1.02 1.02 0 0 Z " transform="translate(260,336)" style="fill: #415951;"/><path d="M0 0 C3.1036444 -0.20519511 6.11501701 -0.30405668 9.21875 -0.30078125 C10.11364136 -0.30506638 11.00853271 -0.3093515 11.93054199 -0.31376648 C13.82005976 -0.31950209 15.70959961 -0.32001571 17.59912109 -0.31567383 C20.48964032 -0.31251133 23.37913832 -0.33599106 26.26953125 -0.36132812 C28.10676954 -0.36360094 29.94401059 -0.3643047 31.78125 -0.36328125 C32.64488159 -0.372491 33.50851318 -0.38170074 34.39831543 -0.39118958 C36.6026714 -0.3741888 38.80437847 -0.19677497 41 0 C41.85013672 0.50249268 42.70027344 1.00498535 43.57617188 1.52270508 C44.2809668 2.25396606 44.2809668 2.25396606 45 3 C45.05386629 5.12472576 45.09273071 7.24983652 45.125 9.375 C45.14820313 10.55835938 45.17140625 11.74171875 45.1953125 12.9609375 C45.13085938 13.96382813 45.06640625 14.96671875 45 16 C44.34 16.66 43.68 17.32 43 18 C38.71 18 34.42 18 30 18 C30 36.81 30 55.62 30 75 C29.01 75.495 29.01 75.495 28 76 C25.52392399 76.14919577 23.04290204 76.22140747 20.5625 76.25 C18.55349609 76.28867187 18.55349609 76.28867187 16.50390625 76.328125 C15.34761719 76.21984375 14.19132813 76.1115625 13 76 C12.01 75.01 11.02 74.02 10 73 C9.63923645 70.55122375 9.63923645 70.55122375 9.65942383 67.6105957 C9.65965042 66.50968094 9.65987701 65.40876617 9.66011047 64.27449036 C9.67559433 63.08691635 9.69107819 61.89934235 9.70703125 60.67578125 C9.71127609 59.45924362 9.71552094 58.24270599 9.71989441 56.98930359 C9.73671149 53.09681229 9.77437041 49.20483529 9.8125 45.3125 C9.82754287 42.67643976 9.84123196 40.04037142 9.85351562 37.40429688 C9.88662501 30.9360219 9.93685495 24.46804769 10 18 C9.15695312 18.01160156 8.31390625 18.02320313 7.4453125 18.03515625 C6.34960938 18.04417969 5.25390625 18.05320312 4.125 18.0625 C3.03445313 18.07410156 1.94390625 18.08570313 0.8203125 18.09765625 C-0.11039063 18.06542969 -1.04109375 18.03320312 -2 18 C-2.66 17.67 -3.32 17.34 -4 17 C-4 12.05 -4 7.1 -4 2 C-2.68 1.34 -1.36 0.68 0 0 Z " transform="translate(767,336)" style="fill: #496059;"/><path d="M0 0 C3.15508962 -0.19682174 6.21984046 -0.27991622 9.375 -0.265625 C10.29587402 -0.26753845 11.21674805 -0.2694519 12.16552734 -0.27142334 C14.11230747 -0.27278421 16.05909669 -0.26909463 18.00585938 -0.26074219 C20.98848828 -0.2500413 23.97051486 -0.26064082 26.953125 -0.2734375 C28.84375133 -0.27211589 30.73437729 -0.26955346 32.625 -0.265625 C33.96570557 -0.27169769 33.96570557 -0.27169769 35.33349609 -0.27789307 C37.55752988 -0.26101982 39.78021721 -0.13847515 42 0 C42.99 0.66 43.98 1.32 45 2 C45.8125 6.1875 45.8125 6.1875 46.015625 8.6015625 C46.01046875 9.39304687 46.0053125 10.18453125 46 11 C45.0625 15.0625 45.0625 15.0625 44 18 C39.38 18 34.76 18 30 18 C30.24230347 19.38191528 30.24230347 19.38191528 30.48950195 20.79174805 C31.12047949 25.99316356 31.16231024 31.09765461 31.16796875 36.33203125 C31.17296135 37.94146858 31.17296135 37.94146858 31.17805481 39.5834198 C31.18309838 41.84003269 31.18546393 44.09665297 31.18530273 46.35327148 C31.1875037 49.81831892 31.20572592 53.28305508 31.22460938 56.74804688 C31.22754086 58.94270724 31.22952729 61.13736912 31.23046875 63.33203125 C31.23765427 64.37156448 31.24483978 65.41109772 31.25224304 66.48213196 C31.24916641 67.4404039 31.24608978 68.39867584 31.24291992 69.38598633 C31.24434494 70.23091141 31.24576996 71.07583649 31.24723816 71.94636536 C31.16564957 72.62406479 31.08406097 73.30176422 31 74 C30.34 74.66 29.68 75.32 29 76 C25.67034009 76.35914065 22.34106198 76.16954643 19 76 C14.9375 75.5625 14.9375 75.5625 12 75 C11.67 74.67 11.34 74.34 11 74 C10.90629376 72.22008076 10.88255729 70.43643261 10.88647461 68.65405273 C10.88655014 67.5129454 10.88662567 66.37183807 10.88670349 65.19615173 C10.89186478 63.9545076 10.89702606 62.71286346 10.90234375 61.43359375 C10.9037587 60.16983414 10.90517365 58.90607452 10.90663147 57.60401917 C10.91225056 53.54848918 10.92480631 49.49301344 10.9375 45.4375 C10.94251254 42.69596434 10.94707587 39.95442781 10.95117188 37.21289062 C10.9622262 30.47524176 10.9789829 23.73762475 11 17 C10.15695312 17.08378906 9.31390625 17.16757812 8.4453125 17.25390625 C7.34960938 17.35574219 6.25390625 17.45757812 5.125 17.5625 C3.48917969 17.71912109 3.48917969 17.71912109 1.8203125 17.87890625 C0.88960938 17.91886719 -0.04109375 17.95882813 -1 18 C-1.66 17.67 -2.32 17.34 -3 17 C-3 12.05 -3 7.1 -3 2 C-2.01 1.34 -1.02 0.68 0 0 Z " transform="translate(378,336)" style="fill: #455E56;"/><path d="M0 0 C2.08304538 -0.05418326 4.16649768 -0.09287551 6.25 -0.125 C7.99023438 -0.15980469 7.99023438 -0.15980469 9.765625 -0.1953125 C11.36664062 -0.09863281 11.36664062 -0.09863281 13 0 C14.32 0.66 15.64 1.32 17 2 C17 26.09 17 50.18 17 75 C16.01 75.495 16.01 75.495 15 76 C12.11087268 75.91061582 9.25606745 75.765952 6.375 75.5625 C5.57320312 75.51029297 4.77140625 75.45808594 3.9453125 75.40429688 C1.96320897 75.27451629 -0.01844499 75.13790265 -2 75 C-2.33 74.34 -2.66 73.68 -3 73 C-3.10726656 70.83613832 -3.14890003 68.66892562 -3.16113281 66.50244141 C-3.17074036 65.13407135 -3.1803479 63.76570129 -3.19024658 62.35586548 C-3.19509424 60.85443284 -3.19937315 59.35299828 -3.203125 57.8515625 C-3.20887613 56.3170064 -3.21463387 54.78245033 -3.22039795 53.24789429 C-3.23090929 50.02821518 -3.23675106 46.80856105 -3.24023438 43.58886719 C-3.24571905 39.46388349 -3.26974565 35.33922991 -3.29820633 31.21434975 C-3.31683334 28.04362016 -3.32203834 24.87297008 -3.32357025 21.7021904 C-3.32806919 19.44209731 -3.34671565 17.18204676 -3.36553955 14.92202759 C-3.36253845 13.54735321 -3.35953735 12.17267883 -3.35644531 10.75634766 C-3.36009094 9.54548492 -3.36373657 8.33462219 -3.36749268 7.08706665 C-3.24622009 6.06833466 -3.12494751 5.04960266 -3 4 C-2.24647247 2.80097549 -2.24647247 2.80097549 -1.47772217 1.57772827 C-0.99007385 1.05707794 -0.50242554 0.53642761 0 0 Z " transform="translate(744,336)" style="fill: #405850;"/><path d="M0 0 C3.5390625 -0.109375 3.5390625 -0.109375 7.625 0.25 C8.97851562 0.35828125 10.33203125 0.4665625 11.7265625 0.578125 C13.34691406 0.78695313 13.34691406 0.78695313 15 1 C15.33 1.33 15.66 1.66 16 2 C16.09967586 4.26449379 16.12799831 6.53214211 16.12939453 8.79882812 C16.13254669 10.25703979 16.13569885 11.71525146 16.13894653 13.21765137 C16.13715676 14.82218455 16.13510581 16.42671746 16.1328125 18.03125 C16.13348555 19.66410334 16.13445558 21.29695658 16.13571167 22.92980957 C16.1371886 26.35637361 16.13503426 29.78291163 16.13037109 33.20947266 C16.1246738 37.61154501 16.12795284 42.01355641 16.13394356 46.41562653 C16.13754931 49.78868065 16.13641052 53.16172022 16.13381577 56.53477478 C16.13314654 58.15836087 16.13397478 59.78194827 16.13629532 61.40553284 C16.13882205 63.67074561 16.13429115 65.93596299 16.12939453 68.20117188 C16.12859894 69.49277222 16.12780334 70.78437256 16.12698364 72.1151123 C16.08507904 73.06712524 16.04317444 74.01913818 16 75 C15.67 75.33 15.34 75.66 15 76 C12.35642413 76.12588457 9.70904547 76.17577925 7.0625 76.1875 C5.60972656 76.20167969 4.15695312 76.21585937 2.66015625 76.23046875 C1.45230469 76.15441406 0.24445313 76.07835937 -1 76 C-1.66 75.34 -2.32 74.68 -3 74 C-3.26069641 71.08424377 -3.26069641 71.08424377 -3.2746582 67.30297852 C-3.28419022 65.89133926 -3.29372223 64.47970001 -3.30354309 63.02528381 C-3.30328167 61.47649104 -3.30234468 59.92769826 -3.30078125 58.37890625 C-3.30466652 56.7971129 -3.30900084 55.2153206 -3.31376648 53.63352966 C-3.32123573 50.31546652 -3.32093243 46.99750976 -3.31567383 43.67944336 C-3.3098794 39.42430021 -3.32680581 35.16959237 -3.3500185 30.91452122 C-3.36474061 27.64688057 -3.36562962 24.37934511 -3.36250877 21.11167717 C-3.3630228 19.54276607 -3.36827569 17.9738492 -3.37832069 16.40497017 C-3.39063642 14.21215246 -3.38196866 12.01924706 -3.37231445 9.82641602 C-3.37294388 8.57780289 -3.3735733 7.32918976 -3.3742218 6.04273987 C-3.25072861 5.03863571 -3.12723541 4.03453156 -3 3 C-2.01 2.01 -1.02 1.02 0 0 Z " transform="translate(356,336)" style="fill: #3F574F;"/></svg>