<?xml version="1.0" encoding="UTF-8"?> <!-- Generator: visioncortex VTracer --> <svg id="svg" version="1.1" xmlns="http://www.w3.org/2000/svg" style="display: block;" viewBox="0 0 1024 1024"><path d="M0 0 C0.96993896 0.00757324 1.93987793 0.01514648 2.93920898 0.02294922 C12.90140774 0.24492551 22.24362757 1.99313185 31.875 4.4375 C32.72416992 4.64648926 33.57333984 4.85547852 34.44824219 5.07080078 C60.29160808 11.53406295 86.62149005 23.05013511 107.375 40.0625 C109.83335764 41.91923425 110.59444386 42.41310381 113.75 42.6875 C117.35677994 41.24478802 120.41639529 39.3371524 123.71484375 37.296875 C176.76494454 6.08321866 247.98818248 -0.91044472 307.375 13.6875 C310.56423991 14.53533193 313.72082061 15.46788189 316.875 16.4375 C317.8227832 16.72641113 318.77056641 17.01532227 319.74707031 17.31298828 C333.20999567 21.47720291 346.17212176 26.33779475 358.875 32.4375 C360.050625 32.99695313 361.22625 33.55640625 362.4375 34.1328125 C366.58270819 36.15461747 370.55703489 38.1005416 374.25 40.875 C376.7773378 42.71509218 376.7773378 42.71509218 379.734375 42.25 C383.18181639 41.35812461 384.97565575 40.20263434 387.75 38 C399.3810263 29.21385986 411.65122532 22.14926635 424.98388672 16.27197266 C426.63284923 15.54435145 428.27239133 14.79545533 429.91015625 14.04296875 C448.79502856 5.67625317 470.07284647 0.16156712 490.75 0 C492.13227783 -0.01522705 492.13227783 -0.01522705 493.54248047 -0.03076172 C499.87434458 0.05247515 504.41963464 0.98213464 509.0625 5.625 C513.18417956 12.02070966 514.33087344 17.79085449 514.2734375 25.23046875 C514.27766724 26.05034271 514.28189697 26.87021667 514.28625488 27.7149353 C514.29261286 30.35203026 514.27388036 32.98801624 514.25 35.625 C514.24302094 36.97632523 514.24302094 36.97632523 514.23590088 38.35494995 C514.15547465 51.5827072 513.76849744 64.48228454 510.875 77.4375 C510.58496094 78.79270752 510.58496094 78.79270752 510.2890625 80.17529297 C505.02159542 104.1755963 495.48082029 127.92763037 479.4296875 146.7890625 C477.61967171 149.34191318 477.61967171 149.34191318 477.9375 152.33203125 C479.00763889 155.87686634 480.42500235 159.16030743 482 162.5 C490.35402302 181.07605326 495.29524193 200.418216 498.875 220.4375 C499.07222656 221.53835938 499.26945313 222.63921875 499.47265625 223.7734375 C501.33568388 235.69681431 501.27310767 247.64561245 501.25 259.6875 C501.24868576 261.35474121 501.24868576 261.35474121 501.24734497 263.05566406 C501.20371581 279.82375549 500.67623264 296.0333073 496.875 312.4375 C496.62298828 313.52804687 496.37097656 314.61859375 496.11132812 315.7421875 C492.71249335 329.98958124 488.4280918 343.8828264 482.875 357.4375 C482.41722168 358.55729248 482.41722168 358.55729248 481.95019531 359.69970703 C468.91401085 391.14190323 449.13791723 419.1664679 425.25 443.3125 C424.64559082 443.92625488 424.04118164 444.54000977 423.41845703 445.17236328 C419.12137172 449.4375 419.12137172 449.4375 416.875 449.4375 C416.875 450.0975 416.875 450.7575 416.875 451.4375 C388.41988312 478.35450245 350.76917585 496.08943621 313.75 507.3125 C312.48555054 507.70562378 312.48555054 507.70562378 311.19555664 508.10668945 C291.67039401 513.729402 272.02504461 515.09216751 251.80297852 514.95898438 C247.94418394 514.93753715 244.08725445 514.95891932 240.22851562 514.984375 C224.08967741 515.0016008 208.70207891 513.5865705 192.875 510.4375 C192.06599243 510.27759079 191.25698486 510.11768158 190.42346191 509.95292664 C154.28301705 502.69192013 119.78901632 486.19126408 90.875 463.4375 C89.905625 462.67953125 88.93625 461.9215625 87.9375 461.140625 C72.55636156 448.81823568 57.98179399 435.00648867 45.875 419.4375 C45.07578125 418.44363281 44.2765625 417.44976563 43.453125 416.42578125 C17.30561939 383.64825226 1.23734868 343.45629981 -6.125 302.4375 C-6.34027344 301.29410156 -6.55554688 300.15070313 -6.77734375 298.97265625 C-9.04470317 286.37805393 -9.33330629 273.69993634 -9.3125 260.9375 C-9.31156342 260.19049835 -9.31062683 259.4434967 -9.30966187 258.67385864 C-9.21362519 223.19185703 -3.00121801 187.21929046 13.30859375 155.3671875 C14.11230858 152.62901421 13.77585423 151.15207408 12.875 148.4375 C11.43027887 146.2704183 9.96358459 144.24156172 8.375 142.1875 C-13.33699919 112.78371843 -21.69873799 76.77794084 -21.62597656 40.78442383 C-21.62499235 37.34829863 -21.66702936 33.91432724 -21.7109375 30.47851562 C-21.71613791 28.26562958 -21.7188328 26.05273591 -21.71875 23.83984375 C-21.73514526 22.82719955 -21.75154053 21.81455536 -21.76843262 20.77122498 C-21.70227729 13.93005523 -20.28850406 8.94894695 -16.125 3.4375 C-11.21060768 -0.29485918 -5.94069715 -0.06543648 0 0 Z " transform="translate(266.125,194.5625)" style="fill: #245943;"/><path d="M0 0 C0.59522461 0.2666748 1.19044922 0.53334961 1.80371094 0.80810547 C5.5560456 2.49675373 9.28509107 4.23070622 13 6 C13 6.66 13 7.32 13 8 C13.99 8.309375 13.99 8.309375 15 8.625 C18.39018148 10.17883318 21.02053773 12.16538357 23.9375 14.46484375 C26.01152578 16.07460205 26.01152578 16.07460205 28.5 17.41796875 C31.20897053 19.13223916 32.93408375 20.93421991 35 23.375 C37.10696137 25.8278804 39.15365697 28.14597412 41.5 30.375 C58.88110864 48.62516408 63.88961319 71.26244109 63.34765625 95.765625 C63.03194654 103.32907911 61.65110817 109.87823425 59 117 C58.55960231 118.28245132 58.11950789 119.56500683 57.6796875 120.84765625 C54.685712 129.21596908 50.5799887 136.06330816 45 143 C44.44570313 143.75539063 43.89140625 144.51078125 43.3203125 145.2890625 C34.71327874 156.94356276 24.45245222 165.74262899 12 173 C11.34 173 10.68 173 10 173 C10 173.66 10 174.32 10 175 C7.39802798 176.00605593 4.79370638 177.00502525 2.1875 178 C1.44951172 178.28617188 0.71152344 178.57234375 -0.04882812 178.8671875 C-0.76103516 179.13789062 -1.47324219 179.40859375 -2.20703125 179.6875 C-3.18893433 180.06455078 -3.18893433 180.06455078 -4.19067383 180.44921875 C-6 181 -6 181 -9 181 C-9 181.66 -9 182.32 -9 183 C-11.18573562 183.65177969 -13.3736823 184.29614674 -15.5625 184.9375 C-16.78066406 185.29714844 -17.99882813 185.65679688 -19.25390625 186.02734375 C-42.01219069 191.93642907 -72.46958778 189.59013079 -94 180 C-94 179.34 -94 178.68 -94 178 C-95.31097656 177.8453125 -95.31097656 177.8453125 -96.6484375 177.6875 C-113.46373673 174.23820785 -130.08588027 157.31328448 -139.25 143.5 C-140.48812038 141.57846757 -141.71082159 139.6486556 -142.921875 137.70996094 C-143.83623965 136.25973222 -144.78913638 134.83391008 -145.75 133.4140625 C-153.97759759 120.85840576 -157.21315421 106.62752968 -157.29516602 91.8503418 C-157.30656499 90.4280391 -157.32681963 89.00577493 -157.35668945 87.58374023 C-157.61556542 75.22855914 -155.80956279 64.50265693 -151 53 C-150.34 53 -149.68 53 -149 53 C-148.9071875 52.12859375 -148.814375 51.2571875 -148.71875 50.359375 C-146.60707638 40.48959614 -137.79743614 32.08566665 -131 25 C-130.35289062 24.30132812 -129.70578125 23.60265625 -129.0390625 22.8828125 C-116.23893761 9.45574271 -99.54050682 0.52685953 -82 -5 C-81.35208496 -5.21172852 -80.70416992 -5.42345703 -80.03662109 -5.64160156 C-54.83133381 -13.556275 -23.90478326 -10.72964057 0 0 Z " transform="translate(559,423)" style="fill: #F1F2F1;"/><path d="M0 0 C4.61268531 4.0110307 6.8230456 6.67609803 7.29052734 12.81542969 C7.31719296 14.35075452 7.33158644 15.88632479 7.3359375 17.421875 C7.3425943 18.24069153 7.3492511 19.05950806 7.35610962 19.90313721 C7.36622213 21.63462077 7.37092707 23.36614319 7.37060547 25.09765625 C7.37496227 27.72722932 7.41124911 30.35510054 7.44921875 32.984375 C7.45509077 34.6718693 7.45905758 36.35937153 7.4609375 38.046875 C7.47530853 38.82424011 7.48967957 39.60160522 7.50448608 40.40252686 C7.45093606 46.90583164 5.52538965 52.07348582 1.25390625 57.0234375 C0.69574219 57.46945312 0.13757813 57.91546875 -0.4375 58.375 C-0.99308594 58.83648438 -1.54867188 59.29796875 -2.12109375 59.7734375 C-7.82234534 63.49525247 -13.379738 63.62096255 -20 63 C-25.31728619 60.99124744 -29.50429073 55.92966907 -32.06445312 50.91503906 C-33.29369338 47.08489067 -33.30541202 43.42587735 -33.30078125 39.4453125 C-33.30506638 38.62553925 -33.3093515 37.80576599 -33.31376648 36.96115112 C-33.31949429 35.23143433 -33.32002148 33.50169346 -33.31567383 31.77197266 C-33.31251862 29.14052733 -33.33597503 26.51021239 -33.36132812 23.87890625 C-33.36360192 22.19270974 -33.36430424 20.50651023 -33.36328125 18.8203125 C-33.372491 18.04092316 -33.38170074 17.26153381 -33.39118958 16.45852661 C-33.34157112 10.53086601 -32.29626301 5.67453371 -28.31640625 1.0390625 C-27.73761719 0.57242187 -27.15882813 0.10578125 -26.5625 -0.375 C-25.69818359 -1.09816406 -25.69818359 -1.09816406 -24.81640625 -1.8359375 C-17.42303811 -6.574053 -6.83887336 -4.80275424 0 0 Z " transform="translate(484,483)" style="fill: #255842;"/><path d="M0 0 C1.1240625 -0.00515625 2.248125 -0.0103125 3.40625 -0.015625 C6.39799081 0.24124163 8.0239631 0.61243923 10.5 2.25 C11.85386936 3.90002828 13.18678142 5.5674387 14.5 7.25 C15.221875 7.765625 15.94375 8.28125 16.6875 8.8125 C18.92482687 10.58693165 18.9966277 11.49084901 19.5 14.25 C19.58703436 15.60205499 19.62783154 16.95764752 19.62939453 18.3125 C19.63254669 19.10011719 19.63569885 19.88773437 19.63894653 20.69921875 C19.6369223 21.54097656 19.63489807 22.38273437 19.6328125 23.25 C19.63376923 24.12269531 19.63472595 24.99539063 19.63571167 25.89453125 C19.63639122 27.7369799 19.63455262 29.57943097 19.63037109 31.421875 C19.62501968 34.23963811 19.6303237 37.05724183 19.63671875 39.875 C19.63605793 41.66666702 19.63477668 43.45833394 19.6328125 45.25 C19.63483673 46.09175781 19.63686096 46.93351563 19.63894653 47.80078125 C19.63421829 48.98220703 19.63421829 48.98220703 19.62939453 50.1875 C19.62859894 50.87714844 19.62780334 51.56679688 19.62698364 52.27734375 C19.49232571 54.369218 19.06742764 56.23585893 18.5 58.25 C17.84 58.25 17.18 58.25 16.5 58.25 C16.273125 58.8275 16.04625 59.405 15.8125 60 C13.47897359 64.00033098 9.7295359 66.503513 5.5 68.25 C2.87890625 68.515625 2.87890625 68.515625 0.0625 68.5 C-0.86433594 68.50515625 -1.79117188 68.5103125 -2.74609375 68.515625 C-7.85992153 68.02237636 -10.85413709 66.36520283 -14.1875 62.5 C-14.76886719 61.84515625 -15.35023438 61.1903125 -15.94921875 60.515625 C-19.46810043 55.37468955 -19.79905307 50.10014781 -19.765625 44.03515625 C-19.76753845 43.26119003 -19.7694519 42.48722382 -19.77142334 41.68980408 C-19.7727784 40.06020786 -19.76912959 38.43060059 -19.76074219 36.80102539 C-19.7500474 34.32348049 -19.76065283 31.84666299 -19.7734375 29.36914062 C-19.7721155 27.77864425 -19.76955227 26.18814832 -19.765625 24.59765625 C-19.76967346 23.86515152 -19.77372192 23.13264679 -19.77789307 22.37794495 C-19.7288498 16.92579929 -19.25290977 11.62031395 -15.9140625 7.10546875 C-15.32367187 6.55503906 -14.73328125 6.00460937 -14.125 5.4375 C-13.53976562 4.87417969 -12.95453125 4.31085938 -12.3515625 3.73046875 C-8.25356602 0.45380068 -5.2542438 -0.02410204 0 0 Z " transform="translate(553.5,477.75)" style="fill: #235842;"/><path d="M0 0 C5.57642312 0.40555805 9.64989951 1.57028296 14.67578125 3.9765625 C16.96203783 4.98328388 19.14697463 5.62689965 21.5625 6.25 C29.15089335 8.383861 36.04091349 12.37412082 43 16 C43.66 16.33 44.32 16.66 45 17 C45 17.66 45 18.32 45 19 C45.680625 19.2475 46.36125 19.495 47.0625 19.75 C50.64052384 21.27256334 53.736234 22.86599915 57 25 C57.703125 27.1328125 57.703125 27.1328125 58 29 C57.05898438 29.845625 56.11796875 30.69125 55.1484375 31.5625 C46.47861665 39.35200834 46.47861665 39.35200834 39.15234375 48.37109375 C37.38867035 50.86415073 35.18174518 52.87279845 33 55 C29.25753227 59.10213346 25.97322516 63.31145263 23 68 C18.82201422 66.60733807 17.0926469 64.09947178 15.07373047 60.22021484 C14.15229107 58.22519493 13.2860739 56.21454283 12.4375 54.1875 C12.14681641 53.51396484 11.85613281 52.84042969 11.55664062 52.14648438 C1.02432394 27.52395431 1.02432394 27.52395431 2 14 C1.34 14 0.68 14 0 14 C0 9.38 0 4.76 0 0 Z " transform="translate(285,239)" style="fill: #F0F3F2;"/><path d="M0 0 C0.14402509 6.28700813 -0.31178631 12.07166441 -1.4375 18.25 C-1.57220703 19.02601563 -1.70691406 19.80203125 -1.84570312 20.6015625 C-2.51217405 24.41182557 -3.21951175 28.21122207 -4 32 C-4.66 32 -5.32 32 -6 32 C-5.9175 32.78375 -5.835 33.5675 -5.75 34.375 C-6.22668706 41.28696234 -9.46308293 47.15639788 -13 53 C-13.8037683 55.06166568 -14.5445684 57.13451567 -15.25390625 59.23046875 C-16 61 -16 61 -18 63 C-18.70710678 64.64991582 -19.37943989 66.31562256 -20 68 C-23.79615769 66.51816652 -25.29924142 64.49616201 -27.5 61.125 C-29.75877349 57.685504 -32.01952024 54.83590425 -35 52 C-38.40422292 48.64464152 -41.64127941 45.20094825 -44.8125 41.625 C-48.94133185 37.05047716 -53.23351581 32.90106109 -58 29 C-57.9296875 27.2734375 -57.9296875 27.2734375 -57 25 C-54.72340065 23.365366 -52.55593745 21.98699786 -50.125 20.625 C-49.45041748 20.23578369 -48.77583496 19.84656738 -48.08081055 19.44555664 C-46.71053664 18.65857829 -45.33674964 17.87768444 -43.95947266 17.10302734 C-42.19745565 16.11115184 -40.44751101 15.09790285 -38.69921875 14.08203125 C-31.53384798 10 -31.53384798 10 -27 10 C-27 9.34 -27 8.68 -27 8 C-23.63141265 6.65005186 -20.25422055 5.32308106 -16.875 4 C-15.92367187 3.6184375 -14.97234375 3.236875 -13.9921875 2.84375 C-5.23053496 -0.56355932 -5.23053496 -0.56355932 0 0 Z " transform="translate(739,239)" style="fill: #EFF2F0;"/><path d="M0 0 C4.45471126 1.98329705 7.62389412 4.50914275 11 8 C11.58652344 8.60070312 12.17304687 9.20140625 12.77734375 9.8203125 C16.73283449 14.88246409 16.66141546 20.42819808 16.421875 26.65625 C15.5168105 33.82972422 11.89346613 38.84898302 7 44 C6.34 44 5.68 44 5 44 C5 44.66 5 45.32 5 46 C-2.00881927 50.01569128 -9.66190904 50.41450991 -17.4765625 48.34375 C-24.13739005 45.36052222 -28.72443411 39.37873357 -32 33 C-34.09047174 26.20967335 -34.23484566 18.49266096 -30.9375 12.125 C-23.66162902 0.73578151 -12.95583697 -2.31622811 0 0 Z " transform="translate(634,365)" style="fill: #EFF3F1;"/><path d="M0 0 C5.37328168 4.39190473 8.52456785 8.10114588 9.4765625 15.22265625 C9.52065584 16.56973257 9.53948689 17.91783418 9.53515625 19.265625 C9.53491455 19.96905029 9.53467285 20.67247559 9.53442383 21.3972168 C9.32329375 27.82520156 7.31657078 31.85555123 2.97265625 36.453125 C2.45316406 37.02417969 1.93367188 37.59523438 1.3984375 38.18359375 C-0.02734375 39.453125 -0.02734375 39.453125 -2.02734375 39.453125 C-2.02734375 40.113125 -2.02734375 40.773125 -2.02734375 41.453125 C-8.65574972 45.25085912 -14.54991714 45.22135376 -22.02734375 44.453125 C-27.5519974 42.8770735 -30.75471982 40.18024846 -34.02734375 35.453125 C-34.52234375 34.98003906 -35.01734375 34.50695312 -35.52734375 34.01953125 C-39.38439133 29.99172896 -40.26130238 24.44455951 -40.52734375 19.078125 C-40.28430352 11.45934213 -37.23980132 5.18662838 -31.71484375 -0.046875 C-22.68973347 -6.90286006 -8.80436885 -6.71778432 0 0 Z " transform="translate(414.02734375,369.546875)" style="fill: #F0F3F2;"/></svg>
