<?xml version="1.0" encoding="UTF-8"?>
<!-- Generator: visioncortex VTracer 0.6.4 -->
<svg version="1.1" xmlns="http://www.w3.org/2000/svg" width="1024" height="1024">
<path d="M0 0 C337.92 0 675.84 0 1024 0 C1024 337.92 1024 675.84 1024 1024 C686.08 1024 348.16 1024 0 1024 C0 686.08 0 348.16 0 0 Z " fill="#F6F5F2" transform="translate(0,0)"/>
<path d="M0 0 C5.80065418 2.96171151 11.09264939 6.50229584 16.3347168 10.35498047 C17.20483398 10.97630859 18.07495117 11.59763672 18.97143555 12.23779297 C19.5953418 12.71732422 20.21924805 13.19685547 20.86206055 13.69091797 C24.42039907 14.61345018 27.26523957 12.66208747 30.40893555 11.11279297 C31.85453707 10.4437056 33.30249215 9.77968118 34.75268555 9.12060547 C35.4694043 8.79479492 36.18612305 8.46898437 36.92456055 8.13330078 C65.48858045 -4.36345793 100.23775876 -2.64300091 128.97143555 8.23779297 C132.72178829 9.8276264 136.41231854 11.52612604 140.08081055 13.29638672 C142.80852235 14.47969907 142.80852235 14.47969907 144.94799805 13.68701172 C145.61573242 13.20876953 146.2834668 12.73052734 146.97143555 12.23779297 C147.97432617 11.54427734 148.9772168 10.85076172 150.01049805 10.13623047 C150.58147217 9.73227051 151.15244629 9.32831055 151.74072266 8.91210938 C166.86362142 -1.67650623 187.88667416 -12.44651309 206.97143555 -9.76220703 C210.53393555 -8.57470703 210.53393555 -8.57470703 212.97143555 -6.76220703 C215.62602375 -1.40500447 215.31512987 3.75504095 215.28393555 9.61279297 C215.279021 10.68827393 215.27410645 11.76375488 215.26904297 12.87182617 C215.00698784 30.77623891 210.3811022 50.13921179 198.53393555 64.11279297 C196.71864206 66.08966668 196.71864206 66.08966668 197.16674805 68.38623047 C198.20686079 72.0720669 199.74304959 75.49212352 201.28393555 78.98779297 C204.94494164 87.54701151 207.13871091 96.13328995 208.97143555 105.23779297 C209.14723145 105.99817871 209.32302734 106.75856445 209.50415039 107.54199219 C210.39097603 112.6581514 210.19701604 117.85549584 210.21166992 123.03564453 C210.22124477 125.07221437 210.25224173 127.10771516 210.28393555 129.14404297 C210.3600139 138.54246407 209.19099968 147.09455464 206.97143555 156.23779297 C206.77791504 157.03540039 206.58439453 157.83300781 206.38500977 158.65478516 C201.03463818 179.12008231 189.93083858 196.59076061 175.97143555 212.23779297 C175.37588867 212.90681641 174.7803418 213.57583984 174.16674805 214.26513672 C165.01944059 223.93579759 153.67864412 231.10544562 141.97143555 237.23779297 C140.95823242 237.77146484 139.9450293 238.30513672 138.90112305 238.85498047 C108.77453496 253.72564927 73.29718859 255.57825923 41.56054688 244.91040039 C22.49390709 238.08191895 6.67247153 227.06346079 -8.02856445 213.23779297 C-8.63055664 212.70025391 -9.23254883 212.16271484 -9.8527832 211.60888672 C-30.00699347 192.86406178 -43.05945748 162.38359783 -44.15283203 135.14160156 C-44.65330174 113.68803021 -43.41679221 92.20082361 -32.7121582 73.01513672 C-31.13536025 69.98503856 -31.13536025 69.98503856 -31.5480957 66.58935547 C-33.23780162 63.90544264 -34.94785288 61.24600391 -36.71606445 58.61279297 C-47.77985442 41.25847723 -53.67649764 17.85332731 -49.21606445 -2.57470703 C-47.54957286 -7.04792132 -47.54957286 -7.04792132 -45.02856445 -8.76220703 C-30.9347881 -13.46013248 -12.71098091 -6.15291615 0 0 Z " fill="#114E3A" transform="translate(429.028564453125,392.76220703125)"/>
<path d="M0 0 C10.39998115 8.90301416 18.27750198 20.46664709 19.40625 34.40234375 C19.66395569 48.79091118 14.59185875 61.14463755 4.72265625 71.5703125 C-8.98211874 84.21270183 -25.29148896 87.5399961 -43.296875 87.203125 C-58.29296298 86.58597042 -72.50888722 79.89356786 -82.796875 68.89453125 C-91.92655422 57.96516167 -95.49895872 45.97521029 -94.796875 31.89453125 C-93.58074771 18.37680863 -84.84418631 7.3437225 -74.796875 -1.10546875 C-52.82452973 -17.30627632 -21.51659569 -16.19754899 0 0 Z " fill="#F5F4F1" transform="translate(549.796875,508.10546875)"/>
<path d="M0 0 C10.27446211 0.59275743 22.16731739 5.22438297 30 12 C30 16 30 16 28.49609375 17.67578125 C27.81675781 18.21589844 27.13742187 18.75601562 26.4375 19.3125 C22.37406544 22.66519247 18.6816541 26.23792141 15 30 C14.02206887 30.98040065 13.04304287 31.95971147 12.0625 32.9375 C11.381875 33.618125 10.70125 34.29875 10 35 C3.80644362 26.0537519 -0.20904541 15.67840612 -0.0625 4.6875 C-0.05347656 3.80449219 -0.04445313 2.92148437 -0.03515625 2.01171875 C-0.02355469 1.34785156 -0.01195312 0.68398438 0 0 Z " fill="#F4F4F2" transform="translate(401,406)"/>
<path d="M0 0 C0.15944345 5.51306389 -0.24992913 10.44998856 -1.625 15.8125 C-1.79741211 16.49957031 -1.96982422 17.18664062 -2.14746094 17.89453125 C-3.82549451 24.12972013 -6.53633746 29.55050426 -10 35 C-10.66 35 -11.32 35 -12 35 C-13.36379622 33.39641543 -14.66525959 31.73964875 -15.9375 30.0625 C-20.68111452 24.09821595 -25.90898318 19.61095666 -32 15 C-28.15000842 10.70808332 -24.29886514 8.29305403 -19.125 5.8125 C-18.44308594 5.47025391 -17.76117187 5.12800781 -17.05859375 4.77539062 C-11.49430994 2.0462419 -6.28697463 0 0 0 Z " fill="#F5F4F2" transform="translate(623,406)"/>
<path d="M0 0 C2.93087207 2.25451698 3.82814288 3.48442865 5 7 C5.24874332 9.95401536 5.23115464 12.91156767 5.25 15.875 C5.270625 16.67808594 5.29125 17.48117187 5.3125 18.30859375 C5.3508205 24.12372995 4.39174352 27.52283707 0.25 31.8125 C-3.03392206 33.54568109 -5.34119985 33.44932633 -9 33 C-11.75329021 31.20437595 -13.52627461 29.94745078 -15 27 C-15.32011789 23.40292849 -15.32432332 19.79706201 -15.375 16.1875 C-15.41238281 15.18912109 -15.44976563 14.19074219 -15.48828125 13.16210938 C-15.57711028 5.75475498 -15.57711028 5.75475498 -12.6015625 1.86328125 C-8.24854441 -1.2544209 -5.15247671 -1.33658307 0 0 Z " fill="#114C38" transform="translate(538,530)"/>
<path d="M0 0 C2.8100346 1.79363911 4.50940468 3.01880935 6 6 C6.31877503 9.43026143 6.32426215 12.86924526 6.375 16.3125 C6.41238281 17.26318359 6.44976562 18.21386719 6.48828125 19.19335938 C6.5770793 26.25280449 6.5770793 26.25280449 3.6015625 30.10546875 C-0.22956073 32.89540083 -2.24354918 33.37305497 -7 33 C-10.80266452 31.27151613 -12.44896669 29.83629122 -14 26 C-14.43397594 22.6977713 -14.37022184 19.39049106 -14.375 16.0625 C-14.39949219 15.16853516 -14.42398437 14.27457031 -14.44921875 13.35351562 C-14.46836443 9.05530938 -14.4072888 6.65786359 -12.1015625 2.93359375 C-8.43093514 -0.44365633 -4.84147154 -0.69561373 0 0 Z " fill="#104B36" transform="translate(495,530)"/>
<path d="M0 0 C3.47878243 2.63259211 5.91276607 4.55079821 7.3125 8.75 C7.68438362 13.77042893 7.44972452 16.74733424 4.3125 20.75 C0.86094376 23.78063475 -1.32886011 25.61936155 -5.9375 26.0625 C-11.03202573 25.63795619 -13.91913513 23.69520136 -17.328125 19.9453125 C-19.84925649 15.87383003 -19.40796836 11.35966333 -18.6875 6.75 C-17.06904438 3.49382142 -14.73976615 1.52166184 -11.8125 -0.625 C-7.58981357 -1.8669666 -4.00091828 -1.86089222 0 0 Z " fill="#F4F4F1" transform="translate(461.6875,473.25)"/>
<path d="M0 0 C3.5826509 2.21057183 5.40553669 4.1524907 7 8 C7.6359083 12.05642561 7.92954126 16.18535769 6.01953125 19.9140625 C3.78282798 22.70822105 1.45086645 25.01403816 -2 26 C-6.73679066 26.4583991 -9.02668629 26.47747465 -13.3125 24.375 C-17.3763334 20.78370537 -18.80847567 17.81948115 -19.375 12.4375 C-18.82453241 7.39154708 -17.21480764 5.06666037 -13.4375 1.75 C-8.80595726 -1.57521018 -5.4651199 -1.22917922 0 0 Z " fill="#F4F4F1" transform="translate(574,472)"/>
<path d="M0 0 C4.875 4.625 4.875 4.625 6 8 C6.99 8 7.98 8 9 8 C11.1875 10.5 11.1875 10.5 13 13 C12.67 13.66 12.34 14.32 12 15 C2.87822878 7.31734317 2.87822878 7.31734317 0 3 C0 2.01 0 1.02 0 0 Z " fill="#E7EDEA" transform="translate(463,569)"/>
<path d="M0 0 C0 2.64 0 5.28 0 8 C-0.99 8.495 -0.99 8.495 -2 9 C-2 6.69 -2 4.38 -2 2 C-3.65 2.33 -5.3 2.66 -7 3 C-7.33 2.34 -7.66 1.68 -8 1 C-5.10765685 0.17361624 -3.11257569 0 0 0 Z " fill="#E1EAE7" transform="translate(623,406)"/>
<path d="M0 0 C1.37432457 3.81756824 0.67975039 7.07255329 0 11 C-0.99 11 -1.98 11 -3 11 C-2.69217504 9.35328588 -2.37860766 7.70764424 -2.0625 6.0625 C-1.88847656 5.14597656 -1.71445312 4.22945313 -1.53515625 3.28515625 C-1 1 -1 1 0 0 Z " fill="#0E3B29" transform="translate(390,483)"/>
</svg>
