<svg xmlns="http://www.w3.org/2000/svg" viewBox="0 0 24 24" fill="none" stroke="#34d399" stroke-width="1.6" stroke-linecap="round" stroke-linejoin="round">
  <path d="M19 11c1 0 2-1 2-2s-1-2-2-2" />
  <path d="M4 13a4 4 0 0 1 4-4h6a4 4 0 0 1 4 4v2a3 3 0 0 1-3 3h-1v2H8v-2H7a3 3 0 0 1-3-3z" />
  <path d="M4 11V9a2 2 0 0 1 2-2h2" />
  <path d="M12 9a2 2 0 0 0-2-2" />
  <circle cx="15" cy="13" r="0.5" fill="#34d399" />
  <circle cx="9" cy="13" r="0.5" fill="#34d399" />
  <path d="M8 17h8" />
</svg>
